<?xml version="1.0" encoding="utf-8"?>
<svg xmlns="http://www.w3.org/2000/svg" fill="none" height="80" viewBox="0 0 180 80" width="180">
<g clip-path="url(#clip0_1534_37949)">
<path d="M128 44.5936V35.0263C128 33.1084 128.287 31.4771 128.86 30.1765C129.433 28.8759 130.204 27.8177 131.196 27.0241C132.144 26.2746 133.225 25.7456 134.503 25.3928C135.76 25.0401 137.06 24.8638 138.405 24.8638C138.493 24.8638 138.625 24.8638 138.78 24.8638C138.934 24.8638 139.044 24.8638 139.155 24.8638V30.1324H137.457C136.024 30.1324 134.966 30.4851 134.261 31.1685C133.577 31.8519 133.225 32.9541 133.225 34.4311V44.5936H128Z" fill="white"/>
<path d="M140.656 19.0884H143.324C144.007 19.0884 144.602 19.3309 145.109 19.8379C145.594 20.3229 145.859 20.9181 145.859 21.6235V23.1887H140.678L140.656 19.0884ZM140.656 24.864H143.324C144.007 24.864 144.602 25.1065 145.109 25.6136C145.594 26.0985 145.859 26.6937 145.859 27.3992V44.5939H140.678L140.656 24.864Z" fill="white"/>
<path d="M164.398 44.5936H161.797C161.047 44.5936 160.452 44.3511 159.989 43.8882C159.526 43.4252 159.284 42.808 159.284 42.0805V32.0062C159.284 30.8158 158.931 29.956 158.203 29.4049C157.476 28.8538 156.682 28.5893 155.8 28.5893C154.919 28.5893 154.125 28.8538 153.42 29.4049C152.736 29.956 152.384 30.8158 152.384 32.0062V44.5936H147.203V33.0202C147.203 29.6695 148.085 27.4209 149.826 26.2746C151.59 25.1283 153.53 24.511 155.646 24.4229C157.829 24.4229 159.813 24.996 161.642 26.1203C163.472 27.2666 164.376 29.5592 164.376 33.0202L164.398 44.5936Z" fill="white"/>
<path d="M173.966 44.5939C172.335 44.6821 170.572 44.66 168.676 44.5278C166.78 44.3735 165.832 43.161 165.832 40.8904V19.0884H168.499C169.139 19.0884 169.712 19.3309 170.197 19.8379C170.682 20.3229 170.946 20.9181 170.946 21.6235V24.9522H173.966V25.9883C173.966 26.7378 173.724 27.333 173.217 27.796C172.732 28.2589 172.137 28.5014 171.431 28.5014H170.902V39.4796C170.902 40.3173 171.387 40.7361 172.379 40.7361H173.944V44.5939H173.966Z" fill="white"/>
<path d="M113.54 49.3336C113.54 50.017 113.298 50.6122 112.791 51.1192C112.306 51.6042 111.711 51.8687 111.005 51.8687H108.492V33.4174C108.492 29.9564 109.506 27.5977 111.534 26.3411C113.562 25.0846 115.767 24.4453 118.126 24.4453C119.36 24.4453 120.617 24.6878 121.873 25.1507C123.13 25.6137 124.144 26.2971 124.871 27.1788C126.348 29.0967 127.098 31.5877 127.098 34.5858C127.098 37.6941 126.348 40.2292 124.871 42.1471C123.394 44.0209 121.476 44.9688 119.162 44.9688C117.927 44.9688 116.847 44.7483 115.899 44.3074C114.907 43.8225 114.114 43.0509 113.518 42.0148L113.54 49.3336ZM122.005 34.8062C122.005 32.8884 121.631 31.3893 120.903 30.3532C120.154 29.3172 119.096 28.7881 117.707 28.7881C116.362 28.7881 115.326 29.3172 114.599 30.3532C113.915 31.3012 113.562 32.7781 113.562 34.8062C113.562 36.68 113.937 38.0909 114.665 39.0388C115.414 40.0749 116.472 40.604 117.861 40.604C119.14 40.604 120.154 40.0749 120.903 39.0388C121.631 38.0027 122.005 36.5919 122.005 34.8062Z" fill="white"/>
<path d="M55.8479 24.423C54.5693 24.423 53.467 24.6654 52.5853 25.1725C51.5492 25.7677 50.7556 26.5392 50.2045 27.4651V21.5351C50.2045 20.8517 49.962 20.2565 49.4549 19.7495C48.97 19.2645 48.3748 19 47.6693 19H45.1562V35.9743C45.1562 39.4794 46.1703 41.8602 48.1984 43.0947C50.2265 44.3292 52.431 44.9464 54.7897 44.9464C56.0242 44.9464 57.2807 44.726 58.5373 44.3071C59.7938 43.8883 60.8079 43.2049 61.5353 42.279C63.0123 40.3612 63.7618 37.8481 63.7618 34.7839C63.7618 31.7197 63.0123 29.2287 61.5353 27.2887C60.0804 25.3929 58.1846 24.423 55.8479 24.423ZM57.5673 39.1046C56.8178 40.1407 55.7597 40.6698 54.3709 40.6698C53.0262 40.6698 51.9901 40.1407 51.2626 39.1046C50.5792 38.1567 50.2265 36.6577 50.2265 34.5855C50.2265 32.7999 50.6013 31.389 51.3287 30.3529C52.0782 29.3609 53.1364 28.876 54.5252 28.876C55.8038 28.876 56.8178 29.405 57.5673 30.4411C58.3168 31.4331 58.6696 32.8219 58.6696 34.5855C58.6696 36.5695 58.2948 38.0685 57.5673 39.1046Z" fill="white"/>
<path d="M67.5736 19.0884H64.9062V44.5939H70.0867V21.5353C70.0867 20.8519 69.8442 20.2567 69.3372 19.7938C68.8522 19.3309 68.257 19.0884 67.5736 19.0884Z" fill="white"/>
<path d="M84.153 25.6133C83.6901 26.0983 83.4476 26.6935 83.4476 27.3989V37.4732C83.4476 38.6637 83.0949 39.5234 82.3674 40.0745C81.6399 40.6256 80.8463 40.8901 79.9646 40.8901C79.0828 40.8901 78.2892 40.6256 77.5837 40.0745C76.9004 39.5234 76.5477 38.6637 76.5477 37.4732V24.8638H71.3672V36.4372C71.3672 39.8541 72.249 42.1026 73.9905 43.1828C75.7541 44.263 77.694 44.8582 79.8102 44.9684C81.9927 44.9684 83.9767 44.4173 85.8064 43.3371C87.6361 42.2569 88.5399 39.9643 88.5399 36.4372V24.8638H85.9386C85.2112 24.8638 84.616 25.1283 84.153 25.6133Z" fill="white"/>
<path d="M105.315 27.0902C103.684 25.3046 101.391 24.4229 98.4152 24.4229C95.5935 24.4229 93.389 25.3267 91.8239 27.1564C90.3028 28.942 89.5312 31.411 89.5312 34.5633C89.5312 37.87 90.3249 40.4272 91.9121 42.1907C93.4993 44.0204 95.6817 44.9243 98.5034 44.9243C100.818 44.9243 102.758 44.3511 104.279 43.2268C105.8 42.1467 106.858 40.5595 107.387 38.4873H103.684C103.089 38.4873 102.626 38.6195 102.317 38.862C101.986 39.1045 101.413 39.8761 100.95 40.1186C100.355 40.4492 99.6497 40.6476 98.79 40.6476C97.5114 40.6476 96.5414 40.2508 95.9021 39.4572C95.2187 38.7077 94.844 37.5834 94.7999 36.0403H107.608C107.652 35.9521 107.674 35.7758 107.674 35.5113C107.674 35.4672 107.674 35.3569 107.674 35.2247C107.674 35.0704 107.674 34.894 107.674 34.6956C107.696 31.4771 106.902 28.9199 105.315 27.0902ZM94.7999 32.7336C94.844 31.4551 95.2187 30.4631 95.9021 29.7576C96.5855 29.0742 97.4893 28.7215 98.5695 28.7215C99.7599 28.7215 100.664 29.0742 101.303 29.7576C101.898 30.3969 102.251 31.3889 102.339 32.7336H94.7999Z" fill="white"/>
<path d="M127.269 55.0641C127.269 55.1082 127.269 55.1744 127.269 55.2405C127.269 55.3287 127.269 55.3948 127.269 55.4169C127.269 55.9018 127.225 56.3427 127.137 56.7395C127.049 57.1584 126.917 57.5331 126.74 57.9079C126.211 58.944 125.506 59.7596 124.602 60.3328C123.698 60.9059 122.684 61.1925 121.538 61.1925C120.7 61.1925 119.928 61.0382 119.201 60.7075C118.496 60.3769 117.856 59.9139 117.283 59.2746C116.82 58.7456 116.445 58.1504 116.203 57.467C115.96 56.8057 115.828 56.0782 115.828 55.3287C115.828 54.5571 115.982 53.8296 116.269 53.1242C116.578 52.4188 117.019 51.8016 117.592 51.2284C118.143 50.6773 118.76 50.2805 119.421 50.0159C120.105 49.7514 120.854 49.6191 121.67 49.6191C122.86 49.6191 123.896 49.9057 124.778 50.5009C125.66 51.0961 126.321 51.9338 126.784 53.0581H124.139C123.808 52.6613 123.433 52.3527 123.015 52.1543C122.574 51.9559 122.089 51.8456 121.56 51.8456C120.612 51.8456 119.796 52.1984 119.135 52.8817C118.473 53.5651 118.143 54.4028 118.143 55.3948C118.143 56.3868 118.473 57.2245 119.157 57.9299C119.818 58.6133 120.656 58.966 121.626 58.966C122.309 58.966 122.926 58.7897 123.478 58.4149C124.029 58.0402 124.448 57.5552 124.712 56.9379H120.347V55.0641H127.269Z" fill="white"/>
<path d="M129.452 58.6356L128.592 60.9723H126.344L130.664 49.8398H132.538L136.793 60.9723H134.456L133.574 58.6356H129.452ZM132.869 56.5855L131.546 52.9922L130.202 56.5855H132.869Z" fill="white"/>
<path d="M139.528 60.9723H137.367V49.8398H140.255L143.077 57.9302L145.898 49.8398H148.786V60.9723H146.648L146.714 52.904L143.892 60.9723H142.261L139.439 52.904L139.528 60.9723Z" fill="white"/>
<path d="M149.867 60.9723V49.8398H152.05V60.9723H149.867Z" fill="white"/>
<path d="M155.263 60.9723H153.125V49.8398H155.197L159.804 56.9382V49.8398H161.943V60.9723H159.937L155.307 53.6535V60.9723H155.263Z" fill="white"/>
<path d="M173.937 55.0641C173.937 55.1082 173.937 55.1744 173.937 55.2405C173.937 55.3287 173.937 55.3948 173.937 55.4169C173.937 55.9018 173.893 56.3427 173.805 56.7395C173.717 57.1584 173.584 57.5331 173.408 57.9079C172.879 58.944 172.174 59.7596 171.27 60.3328C170.366 60.9059 169.352 61.1925 168.206 61.1925C167.368 61.1925 166.596 61.0382 165.869 60.7075C165.163 60.3769 164.524 59.9139 163.951 59.2746C163.466 58.7456 163.113 58.1504 162.871 57.467C162.628 56.8057 162.496 56.0782 162.496 55.3287C162.496 54.5571 162.65 53.8296 162.937 53.1242C163.246 52.4188 163.686 51.8016 164.26 51.2284C164.811 50.6773 165.428 50.2805 166.089 50.0159C166.773 49.7514 167.522 49.6191 168.338 49.6191C169.528 49.6191 170.564 49.9057 171.446 50.5009C172.328 51.0961 172.989 51.9338 173.474 53.0581H170.829C170.498 52.6613 170.124 52.3527 169.705 52.1543C169.264 51.9559 168.779 51.8456 168.25 51.8456C167.302 51.8456 166.486 52.1984 165.825 52.8817C165.163 53.5651 164.833 54.4028 164.833 55.3948C164.833 56.3868 165.163 57.2245 165.847 57.9299C166.508 58.6133 167.346 58.966 168.316 58.966C168.999 58.966 169.616 58.7897 170.168 58.4149C170.719 58.0402 171.138 57.5552 171.402 56.9379H167.037V55.0641H173.937Z" fill="white"/>
<path d="M175.48 50.0388H175.127V46.8864H174.422V46.5337H176.163V46.8864H175.458L175.48 50.0388Z" fill="white"/>
<path d="M176.562 50.0388V46.5337H177.07L178.282 49.5758L179.494 46.5337H180.001V50.0388H179.671V46.9525L178.436 50.0388H178.128L176.893 46.9525V50.0388H176.562Z" fill="white"/>
<path d="M41.6501 36.2614L31.9064 35.6883L37.8805 27.8845L28.5777 32.0068L30.6719 23.5638L25.3592 28.3915L24.8301 20.3232L19.9803 29.0088L15.0644 21.712L15.8139 30.8605L7.72358 24.9085L11.3389 33.3075L3.75557 31.6762L10.6555 38.3116L1 40.2074L9.33284 43.0952L2.34472 47.2617L11.7357 46.1154L5.82775 53.7648L14.7558 49.4882L13.1686 59.4082L18.5915 52.8169L20.8401 59.5846L23.2209 52.7948L28.9084 59.9152L28.0046 49.3779L36.0508 54.5805L32.3914 45.432L40.5699 45.2777L32.7 41.9489L41.6501 36.2614ZM21.5676 51.2958C15.5935 51.2958 10.7437 46.446 10.7437 40.4719C10.7437 34.4979 15.5935 29.6481 21.5676 29.6481C27.5416 29.6481 32.3914 34.4979 32.3914 40.4719C32.3914 46.446 27.5416 51.2958 21.5676 51.2958Z" fill="white"/>
<path d="M29.1062 43.69C28.2024 42.8303 27.9599 41.7501 27.9599 41.7501C27.9158 41.5737 27.8056 41.6178 27.8056 41.6178C27.6954 41.6399 27.7394 41.7721 27.7394 41.7721C27.9378 42.5657 28.0481 42.7641 28.0481 42.7641C21.0599 44.2411 14.7773 42.6098 14.7773 42.6098C15.0638 42.1469 15.2622 41.6619 15.2622 41.6619C15.3063 41.5076 15.2181 41.4856 15.2181 41.4856C15.1079 41.4415 15.0638 41.5737 15.0638 41.5737C14.4025 42.8303 13.4766 43.2932 13.4766 43.2932C13.4766 43.2932 13.3003 43.4034 13.3664 43.4916C13.3664 43.4916 13.4105 43.5577 13.6309 43.4916C14.0718 43.2712 14.5127 42.8964 14.5127 42.8964C15.2181 44.197 16.3645 45.4315 16.3645 45.4315C17.621 46.8203 18.9878 47.3274 18.9878 47.3274C19.8916 47.7903 21.104 47.8123 21.104 47.8123C25.9759 48.0548 28.1803 43.1169 28.1803 43.1169C28.4008 43.4916 28.9519 43.8664 28.9519 43.8664C29.2164 43.9545 29.1062 43.69 29.1062 43.69ZM21.2804 47.4596C17.2242 47.4155 14.9757 43.0066 14.9757 43.0066L15.2843 43.0728C18.8555 43.8884 21.7654 43.7782 22.1401 43.7561C21.2583 43.7782 24.6753 43.7782 27.3867 43.2271L27.7394 43.1609C27.7615 43.1389 25.6011 47.5037 21.2804 47.4596Z" fill="white"/>
<path d="M19.7802 40.3833C19.8684 40.3833 21.2572 40.4053 21.2572 40.4053C21.654 40.3392 21.4777 40.8242 21.4777 40.8242C21.3454 41.0005 21.4997 41.0446 21.4997 41.0446C21.7202 41.0446 21.8083 40.5817 21.8083 40.5817C21.8745 40.0747 21.4556 40.1628 21.4556 40.1628L19.9125 40.1188C18.4135 39.9865 18.5017 38.4875 18.5017 38.4875C18.5017 37.4955 19.4496 36.6357 19.4496 36.6357C20.1991 35.9523 21.5438 35.5555 21.5438 35.5555C21.7202 35.4674 21.6761 35.4233 21.6761 35.4233C21.632 35.291 20.9045 35.5335 20.9045 35.5335C20.9045 35.5335 18.3473 36.261 18.193 38.4213C18.1489 38.4434 18.0167 40.2069 19.7802 40.3833Z" fill="white"/>
<path d="M13.125 37.033C13.125 37.033 14.0068 35.2694 15.4838 35.6442C16.9608 36.0189 16.9607 37.8266 16.9607 37.8266C16.9607 37.8266 17.2253 35.7103 15.5719 35.2694C13.6982 34.8065 13.125 37.033 13.125 37.033Z" fill="white"/>
<path d="M26.6821 35.8646C28.8204 36.041 28.8204 38.3997 28.8204 38.3997C28.8204 38.3997 28.4898 36.3275 26.6821 36.1732C25.4256 36.063 24.7422 37.6061 24.7422 37.6061C24.7422 37.6061 25.139 35.7323 26.6821 35.8646Z" fill="white"/>
<path d="M14.9543 37.0109C13.9182 37.0109 13.4112 40.1412 14.6457 40.2514C15.8581 40.3837 16.2549 36.9006 14.9543 37.0109Z" fill="white"/>
<path d="M14.6688 37.4738C14.6688 37.4738 14.3823 37.6281 14.3161 38.1131C14.25 38.598 14.25 38.7083 14.25 38.7083C14.25 38.7083 14.3602 38.7964 14.4925 38.7524C14.6248 38.7303 14.757 38.598 14.757 38.598C14.757 38.598 14.7129 38.4658 14.7791 38.069C14.8672 37.6942 14.9554 37.4738 14.9554 37.4738C14.9554 37.4738 14.8893 37.4517 14.8232 37.4297C14.757 37.4517 14.6688 37.4738 14.6688 37.4738Z" fill="white"/>
<path d="M27.4315 38.7085C27.4095 38.2897 27.2993 37.8488 27.0788 37.6724C27.0788 37.6724 26.9466 37.5622 26.8804 37.5402C26.8143 37.5181 26.682 37.4961 26.682 37.4961C25.6018 37.4299 25.1169 40.8248 26.197 40.935C26.9466 41.0232 27.4977 39.7005 27.4315 38.7085Z" fill="white"/>
<path d="M26.3954 37.9147C26.3954 37.9147 26.1088 38.069 26.0427 38.554C25.9766 39.039 25.9766 39.1492 25.9766 39.1492C25.9766 39.1492 26.0868 39.2374 26.2191 39.1933C26.3513 39.1712 26.4836 39.039 26.4836 39.039C26.4836 39.039 26.4395 38.9067 26.5056 38.5099C26.5938 38.1351 26.682 37.9147 26.682 37.9147C26.682 37.9147 26.6159 37.8927 26.5497 37.8706C26.4836 37.8927 26.3954 37.9147 26.3954 37.9147Z" fill="white"/>
</g>
<defs>
<clipPath id="clip0_1534_37949">
<rect fill="white" height="80" width="180"/>
</clipPath>
</defs>
</svg>