<?xml version="1.0" encoding="utf-8"?>
<svg xmlns="http://www.w3.org/2000/svg" width="216" height="50" viewBox="0 0 216 50" fill="none">
<path d="M38.3503 29.1599L30.5819 36.9282C30.2409 37.2693 29.7104 37.2693 29.4072 36.9282L26.4135 33.9346C26.0725 33.5935 26.0725 33.063 26.4135 32.7598L33.6893 25.4841C33.9545 25.2188 33.9545 24.802 33.6893 24.5367L30.4682 21.3157C30.203 21.0504 29.7861 21.0504 29.5209 21.3157L22.1693 28.6293C21.8662 28.9325 21.3735 28.9325 21.0325 28.6293L18.0009 25.5978C17.6599 25.2567 17.6599 24.7262 18.0009 24.423L25.7693 16.6547C28.0809 14.3431 31.8324 14.3431 34.144 16.6547L38.3124 20.8231C40.6619 23.1346 40.6619 26.8862 38.3503 29.1599ZM21.1083 45.3787L4.92731 29.1978C2.61574 26.8862 2.61574 23.1346 4.92731 20.7852L21.1083 4.60419C21.4114 4.30103 21.8662 4.30103 22.1314 4.60419L25.2009 7.67365C25.5041 7.9768 25.5041 8.50733 25.2009 8.81048L9.55045 24.4988C9.28518 24.7641 9.28518 25.1809 9.55045 25.4462L25.2388 41.1345C25.5419 41.4377 25.5419 41.9303 25.2388 42.2714L22.1314 45.3787C21.8662 45.644 21.3735 45.644 21.1083 45.3787ZM40.5861 18.5494L22.3588 0.284209C21.9799 -0.0947364 21.3357 -0.0947364 20.9188 0.284209L2.76732 18.4357C0.986275 20.2167 -0.0368778 22.6041 0.00101677 25.0672C0.00101677 27.4925 0.948381 29.7283 2.65364 31.4335L20.9188 49.6987C21.2978 50.0777 21.942 50.0777 22.3588 49.6987L40.624 31.4714C44.1482 27.9093 44.1482 22.1115 40.5861 18.5494Z" fill="white"/>
<path d="M50.5145 30.6757V19.1178C50.5145 18.8147 50.704 18.6631 50.9693 18.6631H58.6619C58.965 18.6631 59.1166 18.8526 59.1166 19.1178V20.8231C59.1166 21.1262 58.9271 21.2778 58.6619 21.2778H53.3187V23.9304H58.2829C58.5861 23.9304 58.7376 24.1199 58.7376 24.3852V26.1283C58.7376 26.4315 58.5482 26.583 58.2829 26.583H53.3187V30.6757C53.3187 30.9788 53.1292 31.1304 52.864 31.1304H50.9693C50.704 31.1304 50.5145 30.9409 50.5145 30.6757Z" fill="white"/>
<path d="M62.7166 25.0672C62.6787 25.1051 62.6029 25.143 62.565 25.1809C62.4892 25.2188 62.4134 25.2946 62.3376 25.3704C62.2997 25.4083 62.2997 25.4083 62.2618 25.4462C62.0345 25.6735 61.9587 25.9767 61.9208 26.2798C61.9208 26.4693 61.9587 26.6588 62.0345 26.8483C62.0724 26.924 62.1103 26.9998 62.186 27.0756C62.2239 27.1514 62.2997 27.1893 62.3376 27.2272C62.3755 27.2272 62.3755 27.2651 62.4134 27.2651C62.5271 27.3409 62.6029 27.4167 62.7166 27.4546C63.0955 27.6061 63.3987 27.9093 63.5881 28.3261C63.626 28.4398 63.7018 28.5535 63.7776 28.6293C63.7776 28.6672 63.8155 28.6672 63.8155 28.7051C63.8534 28.743 63.9292 28.8188 63.9671 28.8567C64.0429 28.9325 64.1187 28.9703 64.1944 29.0082C64.3839 29.084 64.5734 29.1219 64.7629 29.1219C65.066 29.1219 65.3692 29.0082 65.5966 28.8188C65.6344 28.7809 65.6344 28.7809 65.6723 28.743C65.7481 28.6672 65.786 28.5914 65.8618 28.5156L65.8997 28.4777C64.0429 28.3261 62.7924 26.9619 62.7166 25.0672ZM65.7102 21.0504C65.6723 21.0125 65.6723 21.0125 65.6344 20.9746C65.4071 20.7472 65.1039 20.6714 64.8008 20.6335C64.6113 20.6335 64.4218 20.6714 64.2323 20.7472C64.1566 20.7851 64.0808 20.823 64.005 20.8988C63.9671 20.9367 63.8913 21.0125 63.8534 21.0504C63.8534 21.0883 63.8155 21.0883 63.8155 21.1262C63.7397 21.2399 63.6639 21.3156 63.626 21.4293C63.4745 21.8083 63.1713 22.1114 62.7545 22.3009C62.6408 22.3388 62.5271 22.4146 62.4513 22.4904C62.4134 22.5283 62.4134 22.5283 62.3755 22.5283C62.3376 22.5662 62.2618 22.642 62.2239 22.6799C62.1481 22.7556 62.1103 22.8314 62.0724 22.9072C61.9966 23.0967 61.9587 23.2862 61.9587 23.4756C61.9587 23.7788 62.0724 24.0819 62.2997 24.3093C62.3376 24.3472 62.3376 24.3472 62.3755 24.3851C62.4513 24.4609 62.5271 24.4988 62.6029 24.5746C62.6408 24.6125 62.7166 24.6504 62.7545 24.6883C62.8303 22.7935 64.0808 21.4293 65.9755 21.3156L65.9376 21.2778C65.8618 21.202 65.786 21.1262 65.7102 21.0504ZM69.9923 25.3325C69.9165 25.2567 69.8407 25.2188 69.765 25.143C69.7271 25.1051 69.6513 25.0672 69.6134 25.0293C69.5376 26.924 68.2871 28.3261 66.3923 28.4019L66.4302 28.4398C66.4681 28.5156 66.5439 28.5914 66.6197 28.6672C66.6576 28.7051 66.6576 28.7051 66.6955 28.743C66.9229 28.9703 67.226 29.0461 67.5292 29.0461C67.7186 29.0461 67.9081 29.0082 68.0976 28.9325C68.1734 28.8946 68.2492 28.8567 68.325 28.7809C68.4007 28.743 68.4386 28.6672 68.4765 28.6293C68.4765 28.5914 68.5144 28.5914 68.5144 28.5535C68.5902 28.4398 68.666 28.364 68.7039 28.2504C68.8555 27.8714 69.1586 27.5682 69.5755 27.3788C69.6892 27.3409 69.8028 27.2651 69.8786 27.1893C69.9165 27.1893 69.9165 27.1514 69.9544 27.1514C69.9923 27.1135 70.0681 27.0377 70.106 26.9998C70.1818 26.924 70.2197 26.8483 70.2576 26.7725C70.3334 26.583 70.3713 26.3935 70.3713 26.204C70.3713 25.9009 70.2576 25.5977 70.0681 25.3704C70.0302 25.3704 70.0302 25.3704 69.9923 25.3325ZM69.6134 24.7262C69.6513 24.6883 69.7271 24.6504 69.765 24.6125C69.8407 24.5746 69.9165 24.4988 69.9923 24.423C70.0302 24.3851 70.0302 24.3851 70.0681 24.3472C70.2955 24.1198 70.3713 23.8167 70.3713 23.5135C70.3713 23.3241 70.3334 23.1346 70.2576 22.9451C70.2197 22.8693 70.1818 22.7935 70.106 22.7177C70.0681 22.6799 69.9923 22.6041 69.9544 22.5662C69.9165 22.5662 69.9165 22.5283 69.8786 22.5283C69.765 22.4525 69.6892 22.3767 69.5755 22.3388C69.1965 22.1872 68.8934 21.8841 68.7039 21.4672C68.666 21.3535 68.5902 21.2399 68.5144 21.1641C68.5144 21.1262 68.4765 21.1262 68.4765 21.0883C68.4386 21.0504 68.3629 20.9746 68.325 20.9367C68.2492 20.8609 68.1734 20.823 68.0976 20.7851C67.9081 20.7093 67.7186 20.6714 67.5292 20.6714C67.226 20.6714 66.9229 20.7851 66.6955 21.0125C66.6576 21.0504 66.6576 21.0504 66.6197 21.0883C66.5439 21.1641 66.506 21.2399 66.4302 21.3156L66.3923 21.3535C68.2871 21.4293 69.5376 22.8314 69.6134 24.7262Z" fill="white"/>
<path d="M69.6133 24.7262C69.5375 24.7641 69.4996 24.802 69.4238 24.802C69.348 24.8399 69.2343 24.8778 69.1586 24.8778C69.2722 24.9157 69.348 24.9157 69.4238 24.9535C69.4996 24.9914 69.5375 24.9914 69.6133 25.0293C69.6512 25.0672 69.727 25.1051 69.7649 25.143C69.8407 25.1809 69.9164 25.2567 69.9922 25.3325C70.0301 25.3704 70.0301 25.3704 70.068 25.4083C70.2954 25.6356 70.3712 25.9388 70.3712 26.242C70.3712 26.4314 70.3333 26.6209 70.2575 26.8104C70.2196 26.8862 70.1817 26.962 70.1059 27.0377C70.068 27.1135 69.9922 27.1514 69.9543 27.1893C69.9165 27.1893 69.9164 27.2272 69.8786 27.2272C69.7649 27.303 69.6891 27.3788 69.5754 27.4167C69.1965 27.5683 68.8933 27.8714 68.7038 28.2883C68.6659 28.402 68.5901 28.5156 68.5144 28.5914C68.5144 28.6293 68.4765 28.6293 68.4765 28.6672C68.4386 28.7051 68.3628 28.7809 68.3249 28.8188C68.2491 28.8946 68.1733 28.9325 68.0975 28.9704C67.908 29.0462 67.7186 29.0841 67.5291 29.0841C67.2259 29.0841 66.9228 28.9704 66.6954 28.7809C66.6575 28.743 66.6575 28.743 66.6196 28.7051C66.5438 28.6293 66.5059 28.5535 66.4301 28.4777L66.3923 28.4398C66.3165 28.3641 66.2786 28.2504 66.2407 28.1367C66.2028 28.0609 66.1649 27.9472 66.1649 27.8714C66.127 27.9851 66.127 28.0609 66.0891 28.1367C66.0512 28.2504 66.0133 28.3262 65.9375 28.4398L65.8996 28.4777C65.8617 28.5535 65.7859 28.6293 65.7101 28.7051C65.6723 28.743 65.6723 28.743 65.6344 28.7809C65.407 29.0083 65.1038 29.0841 64.8007 29.0841C64.6112 29.0841 64.4217 29.0462 64.2323 28.9704C64.1565 28.9325 64.0807 28.8946 64.0049 28.8188C63.967 28.7809 63.8912 28.7051 63.8533 28.6672C63.8533 28.6293 63.8154 28.6293 63.8154 28.5914C63.7396 28.4777 63.6638 28.402 63.6259 28.2883C63.4744 27.9093 63.1712 27.6062 62.7544 27.4167C62.6407 27.3788 62.527 27.303 62.4512 27.2272C62.4133 27.2272 62.4133 27.1893 62.3754 27.1893C62.3375 27.1514 62.2617 27.0756 62.2239 27.0377C62.1481 26.962 62.1102 26.8862 62.0723 26.8104C61.9965 26.6209 61.9586 26.4314 61.9586 26.242C61.9586 25.9388 62.0723 25.6356 62.2996 25.4083C62.3375 25.3704 62.3375 25.3704 62.3754 25.3325C62.4512 25.2567 62.527 25.2188 62.6028 25.143C62.6407 25.1051 62.7165 25.0672 62.7544 25.0293C62.8302 24.9914 62.8681 24.9535 62.9439 24.9535C63.0196 24.9157 63.1333 24.8778 63.2091 24.8778C63.1333 24.8399 63.0196 24.8399 62.9439 24.802C62.8681 24.7641 62.8302 24.7641 62.7544 24.7262C62.7165 24.6883 62.6407 24.6504 62.6028 24.6125C62.527 24.5746 62.4512 24.4988 62.3754 24.423C62.3375 24.3851 62.3375 24.3851 62.2996 24.3472C62.0723 24.1199 61.9965 23.8167 61.9586 23.5136C61.9586 23.3241 61.9965 23.1346 62.0723 22.9451C62.1102 22.8693 62.1481 22.7936 62.2239 22.7178C62.2617 22.6799 62.3375 22.6041 62.3754 22.5662C62.4133 22.5662 62.4133 22.5283 62.4512 22.5283C62.5649 22.4525 62.6407 22.3767 62.7544 22.3388C63.1333 22.1872 63.4365 21.8841 63.6259 21.4672C63.6638 21.3536 63.7396 21.2399 63.8154 21.1641C63.8154 21.1262 63.8533 21.1262 63.8533 21.0883C63.8912 21.0504 63.967 20.9746 64.0049 20.9367C64.0807 20.8609 64.1565 20.823 64.2323 20.7851C64.4217 20.7094 64.6112 20.6715 64.8007 20.6715C65.1038 20.6715 65.407 20.7851 65.6344 21.0125C65.6723 21.0504 65.6723 21.0504 65.7101 21.0883C65.7859 21.1641 65.8238 21.2399 65.8996 21.3157L65.9375 21.3536C65.9754 21.4294 66.0512 21.543 66.0891 21.6567C66.127 21.7325 66.1649 21.8462 66.1649 21.922C66.2028 21.8462 66.2028 21.7325 66.2407 21.6567C66.2786 21.543 66.3165 21.4672 66.3923 21.3536L66.4301 21.3157C66.468 21.2399 66.5438 21.1641 66.6196 21.0883C66.6575 21.0504 66.6575 21.0504 66.6954 21.0125C66.9228 20.7851 67.2259 20.7094 67.5291 20.6715C67.7186 20.6715 67.908 20.7094 68.0975 20.7851C68.1733 20.823 68.2491 20.8609 68.3249 20.9367C68.4007 20.9746 68.4386 21.0504 68.4765 21.0883C68.4765 21.1262 68.5144 21.1262 68.5144 21.1641C68.5901 21.2778 68.6659 21.3536 68.7038 21.4672C68.8554 21.8462 69.1586 22.1494 69.5754 22.3388C69.6891 22.3767 69.8028 22.4525 69.8786 22.5283C69.9164 22.5662 69.9165 22.5662 69.9543 22.5662C69.9922 22.6041 70.068 22.6799 70.1059 22.7178C70.1817 22.7936 70.2196 22.8693 70.2575 22.9451C70.3333 23.1346 70.3712 23.3241 70.3712 23.5136C70.3712 23.8167 70.2575 24.1199 70.068 24.3472C70.0301 24.3851 70.0301 24.3851 69.9922 24.423C69.9164 24.4988 69.8407 24.5367 69.7649 24.6125C69.727 24.6504 69.6512 24.6883 69.6133 24.7262ZM66.1649 18.5115C62.4512 18.5115 59.8744 21.202 59.8744 24.8778C59.8744 28.5914 62.4512 31.244 66.1649 31.244C69.8786 31.244 72.4175 28.5535 72.4175 24.8778C72.4175 21.202 69.8786 18.5115 66.1649 18.5115Z" fill="white"/>
<path d="M73.7817 26.6967V19.1178C73.7817 18.8147 73.9712 18.6631 74.2365 18.6631H76.1312C76.4344 18.6631 76.5859 18.8526 76.5859 19.1178V26.3557C76.5859 27.9473 77.5712 28.5157 78.6322 28.5157C79.6933 28.5157 80.6785 27.9851 80.6785 26.3557V19.1178C80.6785 18.8147 80.868 18.6631 81.1333 18.6631H83.0659C83.3691 18.6631 83.5206 18.8526 83.5206 19.1178V26.6967C83.5206 29.122 81.8154 31.282 78.6322 31.282C75.487 31.282 73.7817 29.122 73.7817 26.6967Z" fill="white"/>
<path d="M90.7205 24.3473C91.5163 24.3473 92.2363 23.8167 92.2363 22.8694C92.2363 21.922 91.5163 21.4294 90.7205 21.4294H87.9921V24.3473H90.7205ZM85.15 30.6757V19.1178C85.15 18.8147 85.3395 18.6631 85.6048 18.6631H91.1753C92.9942 18.6631 95.0405 20.0273 95.0405 22.8694C95.0405 24.9157 93.9416 26.2041 92.6531 26.7725L94.9647 30.5999C95.1542 30.903 95.0405 31.1683 94.6616 31.1683H92.4258C92.1605 31.1683 92.0089 31.0925 91.8574 30.8651L89.5837 27.1136H87.9542V30.6757C87.9542 30.9788 87.7647 31.1304 87.4995 31.1304H85.6048C85.3395 31.1304 85.15 30.9409 85.15 30.6757Z" fill="white"/>
<path d="M100.043 30.6757V19.1178C100.043 18.8147 100.232 18.6631 100.497 18.6631H102.392C102.695 18.6631 102.847 18.8526 102.847 19.1178V28.5536H108.076C108.379 28.5536 108.531 28.743 108.531 29.0083V30.6757C108.531 30.9788 108.342 31.1304 108.076 31.1304H100.497C100.194 31.1304 100.043 30.9409 100.043 30.6757Z" fill="white"/>
<path d="M109.781 30.6757V19.1178C109.781 18.8147 109.971 18.6631 110.236 18.6631H117.853C118.156 18.6631 118.308 18.8526 118.308 19.1178V20.7473C118.308 21.0504 118.118 21.202 117.853 21.202H112.586V23.5894H117.474C117.777 23.5894 117.929 23.7789 117.929 24.0441V25.6736C117.929 25.9767 117.739 26.1283 117.474 26.1283H112.624V28.5157H117.853C118.156 28.5157 118.308 28.7051 118.308 28.9704V30.6757C118.308 30.9788 118.118 31.1304 117.853 31.1304H110.236C109.971 31.1304 109.781 30.9409 109.781 30.6757Z" fill="white"/>
<path d="M126.834 26.8104L125.394 23.1346L123.992 26.8104H126.834ZM119.52 30.5999L124.181 19.042C124.295 18.8147 124.485 18.6631 124.712 18.6631H126.076C126.341 18.6631 126.531 18.8147 126.607 19.042L131.268 30.5999C131.419 30.903 131.23 31.1304 130.889 31.1304H128.842C128.577 31.1304 128.426 31.0167 128.312 30.7514L127.781 29.3872H122.931L122.4 30.7514C122.287 31.0167 122.135 31.1304 121.87 31.1304H119.824C119.52 31.1304 119.369 30.903 119.52 30.5999Z" fill="white"/>
<path d="M132.329 30.6757V19.1178C132.329 18.8147 132.518 18.6631 132.784 18.6631H140.476C140.779 18.6631 140.931 18.8526 140.931 19.1178V20.8231C140.931 21.1262 140.741 21.2778 140.476 21.2778H135.133V23.9304H140.097C140.4 23.9304 140.552 24.1199 140.552 24.3852V26.1283C140.552 26.4315 140.363 26.583 140.097 26.583H135.133V30.6757C135.133 30.9788 134.944 31.1304 134.678 31.1304H132.784C132.518 31.1304 132.329 30.9409 132.329 30.6757Z" fill="white"/>
<path d="M152.564 31.2819C148.851 31.2819 146.35 28.5914 146.35 24.9156C146.35 21.2398 148.889 18.5493 152.564 18.5493C154.649 18.5493 156.354 19.4209 157.415 20.823C157.529 20.9746 157.491 21.1261 157.339 21.2398L156.884 21.543C156.733 21.6567 156.581 21.6188 156.468 21.4672C155.558 20.3304 154.156 19.6862 152.527 19.6862C149.457 19.6862 147.411 21.9219 147.411 24.9535C147.411 27.9851 149.457 30.2208 152.527 30.2208C155.179 30.2208 157.036 28.4777 157.301 25.8251H152.792C152.602 25.8251 152.489 25.7114 152.489 25.5219V25.0672C152.489 24.8777 152.602 24.764 152.792 24.764H158.211C158.4 24.764 158.514 24.8777 158.514 25.0672V25.2188C158.438 28.743 156.164 31.2819 152.564 31.2819Z" fill="white"/>
<path d="M168.139 26.6588L165.562 20.3683L162.986 26.6588H168.139ZM169.844 30.903L168.556 27.7199H162.569L161.28 30.903C161.204 31.0546 161.091 31.1304 160.939 31.1304H160.371C160.143 31.1304 160.068 31.0167 160.143 30.7893L165.07 18.8905C165.145 18.7389 165.259 18.6631 165.411 18.6631H165.752C165.903 18.6631 166.055 18.7389 166.093 18.8905L171.019 30.7893C171.095 31.0167 170.981 31.1304 170.792 31.1304H170.223C170.034 31.1304 169.882 31.0546 169.844 30.903Z" fill="white"/>
<path d="M184.889 18.9662V30.8272C184.889 31.0167 184.775 31.1304 184.585 31.1304H184.055C183.865 31.1304 183.752 31.0167 183.752 30.8272V20.7473L179.508 29.3494C179.432 29.5009 179.318 29.5767 179.167 29.5767H178.825C178.674 29.5767 178.56 29.5009 178.484 29.3494L174.24 20.7473V30.8272C174.24 31.0167 174.127 31.1304 173.937 31.1304H173.407C173.217 31.1304 173.103 31.0167 173.103 30.8272V18.9662C173.103 18.7768 173.217 18.6631 173.407 18.6631H174.089C174.24 18.6631 174.354 18.7389 174.43 18.8905L178.939 27.8715L183.487 18.8905C183.562 18.7389 183.676 18.6631 183.828 18.6631H184.51C184.775 18.6631 184.889 18.7768 184.889 18.9662Z" fill="white"/>
<path d="M188.602 31.1304H188.072C187.882 31.1304 187.769 31.0167 187.769 30.8272V18.9662C187.769 18.7768 187.882 18.6631 188.072 18.6631H188.602C188.792 18.6631 188.905 18.7768 188.905 18.9662V30.8272C188.867 31.0167 188.754 31.1304 188.602 31.1304Z" fill="white"/>
<path d="M200.312 18.6631H200.842C201.032 18.6631 201.145 18.7768 201.145 18.9662V30.8272C201.145 31.0167 201.032 31.1304 200.842 31.1304H200.274C200.122 31.1304 199.971 31.0546 199.895 30.9409L192.884 20.5578V30.8272C192.884 31.0167 192.771 31.1304 192.581 31.1304H192.051C191.861 31.1304 191.747 31.0167 191.747 30.8272V18.9662C191.747 18.7768 191.861 18.6631 192.051 18.6631H192.619C192.771 18.6631 192.922 18.7389 192.998 18.8526L200.046 29.2357V18.9662C200.046 18.7768 200.16 18.6631 200.312 18.6631Z" fill="white"/>
<path d="M210.051 31.2819C206.337 31.2819 203.836 28.5914 203.836 24.9156C203.836 21.2398 206.375 18.5493 210.051 18.5493C212.135 18.5493 213.84 19.4209 214.901 20.823C215.015 20.9746 214.977 21.1261 214.825 21.2398L214.371 21.543C214.219 21.6567 214.067 21.6188 213.954 21.4672C213.044 20.3304 211.642 19.6862 210.013 19.6862C206.943 19.6862 204.897 21.9219 204.897 24.9535C204.897 27.9851 206.943 30.2208 210.013 30.2208C212.665 30.2208 214.522 28.4777 214.787 25.8251H210.278C210.089 25.8251 209.975 25.7114 209.975 25.5219V25.0672C209.975 24.8777 210.089 24.764 210.278 24.764H215.697C215.886 24.764 216 24.8777 216 25.0672V25.2188C215.886 28.743 213.651 31.2819 210.051 31.2819Z" fill="white"/>
<path d="M70.0681 25.4083C70.2954 25.6357 70.3712 25.9389 70.3712 26.242C70.3712 26.4315 70.3333 26.621 70.2575 26.8104C70.2196 26.8862 70.1817 26.962 70.1059 27.0378C70.0681 27.1136 69.9923 27.1515 69.9544 27.1894C69.9165 27.1894 69.9165 27.2273 69.8786 27.2273C69.7649 27.3031 69.6891 27.3788 69.5754 27.4167C69.1965 27.5683 68.8933 27.8715 68.7039 28.2883C68.666 28.402 68.5902 28.5157 68.5144 28.5915C68.5144 28.6294 68.4765 28.6294 68.4765 28.6673C68.4386 28.7052 68.3628 28.7809 68.3249 28.8188C68.2491 28.8946 68.1733 28.9325 68.0975 28.9704C67.9081 29.0462 67.7186 29.0841 67.5291 29.0841C67.226 29.0841 66.9228 28.9704 66.6954 28.7809C66.6575 28.7431 66.6575 28.7431 66.6197 28.7052C66.5439 28.6294 66.506 28.5536 66.4302 28.4778L66.3923 28.4399C66.3165 28.3641 66.2786 28.2504 66.2407 28.1367C66.2028 28.0609 66.1649 27.9473 66.1649 27.8715C66.127 27.9852 66.127 28.0609 66.0891 28.1367C66.0512 28.2504 66.0133 28.3262 65.9375 28.4399L65.8996 28.4778C65.8618 28.5536 65.786 28.6294 65.7102 28.7052C65.6723 28.7431 65.6723 28.7431 65.6344 28.7809C65.407 29.0083 65.1039 29.0841 64.8007 29.0841C64.6112 29.0841 64.4218 29.0462 64.2323 28.9704C64.1565 28.9325 64.0807 28.8946 64.0049 28.8188C63.967 28.7809 63.8912 28.7052 63.8533 28.6673C63.8533 28.6294 63.8154 28.6294 63.8154 28.5915C63.7397 28.4778 63.6639 28.402 63.626 28.2883C63.4744 27.9094 63.1712 27.6062 62.7544 27.4167C62.6407 27.3788 62.527 27.3031 62.4512 27.2273C62.4134 27.2273 62.4134 27.1894 62.3755 27.1894C62.3376 27.1515 62.2618 27.0757 62.2239 27.0378C62.1481 26.962 62.1102 26.8862 62.0723 26.8104C61.9965 26.621 61.9586 26.4315 61.9586 26.242C61.9586 25.9389 62.0723 25.6357 62.2997 25.4083C62.3376 25.3704 62.3376 25.3704 62.3755 25.3325C62.4512 25.2568 62.527 25.2189 62.6028 25.1431C62.6407 25.1052 62.7165 25.0673 62.7544 25.0294C62.8302 24.9915 62.8681 24.9536 62.9439 24.9536C63.0197 24.9157 63.1334 24.8778 63.2091 24.8778C63.1334 24.8399 63.0197 24.8399 62.9439 24.802C62.8681 24.7641 62.8302 24.7641 62.7544 24.7262C62.7165 24.6883 62.6407 24.6504 62.6028 24.6125C62.527 24.5746 62.4512 24.4989 62.3755 24.4231C62.3376 24.3852 62.3376 24.3852 62.2997 24.3473C62.0723 24.1199 61.9965 23.8168 61.9586 23.5136C61.9586 23.3241 61.9965 23.1347 62.0723 22.9452C62.1102 22.8694 62.1481 22.7936 62.2239 22.7178C62.2618 22.6799 62.3376 22.6041 62.3755 22.5662C62.4134 22.5662 62.4134 22.5283 62.4512 22.5283C62.5649 22.4526 62.6407 22.3768 62.7544 22.3389C63.1334 22.1873 63.4365 21.8841 63.626 21.4673C63.6639 21.3536 63.7397 21.2399 63.8154 21.1641C63.8154 21.1262 63.8533 21.1262 63.8533 21.0883C63.8912 21.0505 63.967 20.9747 64.0049 20.9368C64.0807 20.861 64.1565 20.8231 64.2323 20.7852C64.4218 20.7094 64.6112 20.6715 64.8007 20.6715C65.1039 20.6715 65.407 20.7852 65.6344 21.0126C65.6723 21.0505 65.6723 21.0505 65.7102 21.0883C65.786 21.1641 65.8239 21.2399 65.8996 21.3157L65.9375 21.3536C65.9754 21.4294 66.0512 21.5431 66.0891 21.6568C66.127 21.7326 66.1649 21.8462 66.1649 21.922C66.2028 21.8462 66.2028 21.7326 66.2407 21.6568C66.2786 21.5431 66.3165 21.4673 66.3923 21.3536L66.4302 21.3157C66.4681 21.2399 66.5439 21.1641 66.6197 21.0883C66.6575 21.0505 66.6575 21.0505 66.6954 21.0126C66.9228 20.7852 67.226 20.7094 67.5291 20.6715C67.7186 20.6715 67.9081 20.7094 68.0975 20.7852C68.1733 20.8231 68.2491 20.861 68.3249 20.9368C68.4007 20.9747 68.4386 21.0505 68.4765 21.0883C68.4765 21.1262 68.5144 21.1262 68.5144 21.1641C68.5902 21.2778 68.666 21.3536 68.7039 21.4673C68.8554 21.8462 69.1586 22.1494 69.5754 22.3389C69.6891 22.3768 69.8028 22.4526 69.8786 22.5283C69.9165 22.5662 69.9165 22.5662 69.9544 22.5662C69.9923 22.6041 70.0681 22.6799 70.1059 22.7178C70.1817 22.7936 70.2196 22.8694 70.2575 22.9452C70.3333 23.1347 70.3712 23.3241 70.3712 23.5136C70.3712 23.8168 70.2575 24.1199 70.0681 24.3473C70.0302 24.3852 70.0302 24.3852 69.9923 24.4231C69.9165 24.4989 69.8407 24.5368 69.7649 24.6125C69.727 24.6504 69.6512 24.6883 69.6133 24.7262C69.5375 24.7641 69.4996 24.802 69.4238 24.802C69.3481 24.8399 69.2344 24.8778 69.1586 24.8778C69.2723 24.9157 69.3481 24.9157 69.4238 24.9536C69.4996 24.9915 69.5375 24.9915 69.6133 25.0294C69.6512 25.0673 69.727 25.1052 69.7649 25.1431C69.8407 25.181 69.9165 25.2568 69.9923 25.3325C70.0302 25.3704 70.0302 25.3704 70.0681 25.4083Z" fill="#DFDFDF"/>
</svg>