<?xml version="1.0" encoding="utf-8"?>
<svg xmlns="http://www.w3.org/2000/svg" fill="none" height="80" viewBox="0 0 220 80" width="220">
<path clip-rule="evenodd" d="M22.3093 52.164L0.400435 30.2977C-0.450394 29.4468 0.145186 28.043 1.33635 28.043H23.2452C23.9684 28.043 24.564 28.6385 24.564 29.3618V51.2281C24.564 52.3767 23.1601 52.9723 22.3093 52.164Z" fill="white" fill-rule="evenodd"/>
<path clip-rule="evenodd" d="M27.2422 51.2281V29.3618C27.2422 28.6385 27.8378 28.043 28.561 28.043H50.4698C51.661 28.043 52.2566 29.4468 51.4057 30.2977L29.4969 52.164C28.6461 52.9723 27.2422 52.3767 27.2422 51.2281Z" fill="white" fill-rule="evenodd"/>
<path clip-rule="evenodd" d="M54.0898 51.2281V29.3618C54.0898 28.6385 54.6854 28.043 55.4086 28.043H77.3175C78.5087 28.043 79.1042 29.4468 78.2534 30.2977L56.3445 52.164C55.4937 52.9723 54.0898 52.3767 54.0898 51.2281Z" fill="white" fill-rule="evenodd"/>
<path clip-rule="evenodd" d="M108.71 28V43.1022L103.434 32.4243H100.414L95.0537 43.2298V28H90.2891V52.5464H95.0112L101.86 39.1884L108.752 52.5464H113.432V28H108.71Z" fill="white" fill-rule="evenodd"/>
<path d="M126.664 35.0619L129.429 43.6978H123.856L126.664 35.0619ZM124.281 28L115.73 52.5039H121.048L122.537 47.8669H130.748L132.237 52.5039H137.554L129.003 28H124.281Z" fill="white"/>
<path clip-rule="evenodd" d="M138.531 28V32.2541H148.528L138.531 49.2707V52.5464H155.122V48.3348H144.87L154.782 31.2757V28H138.531Z" fill="white" fill-rule="evenodd"/>
<path d="M171.547 41.8689V38.6783C171.547 34.4667 170.399 32.2546 167.08 32.2546H163.337V48.3353H167.08C170.399 48.3353 171.547 46.1231 171.547 41.8689ZM158.359 52.5469V28.043H167.08C172.653 28.043 176.525 30.8932 176.525 38.7209V41.9115C176.525 49.6966 172.653 52.5894 167.08 52.5894H158.359V52.5469Z" fill="white"/>
<path d="M188.261 35.0619L191.026 43.6978H185.454L188.261 35.0619ZM185.879 28L177.328 52.5039H182.646L184.135 47.8669H192.345L193.834 52.5039H199.152L190.644 28H185.879Z" fill="white"/>
<path clip-rule="evenodd" d="M215.276 28V43.4L205.662 28H201.535V52.5464H206.257V37.3591L215.829 52.5464H219.998V28H215.276Z" fill="white" fill-rule="evenodd"/>
</svg>