<svg width="48" height="48" viewBox="0 0 48 48" fill="none" xmlns="http://www.w3.org/2000/svg">
<path d="M1.60019 21.4001L40.4002 8.00009C40.8002 7.90009 41.2002 8.10009 41.4002 8.50009L47.4002 25.9001C47.5002 26.3001 47.3002 26.7001 46.9002 26.9001L8.10019 40.2001C7.70019 40.3001 7.30019 40.1001 7.10019 39.7001L1.10019 22.3001C1.00019 22.0001 1.20019 21.5001 1.60019 21.4001Z" fill="#20BA65"/>
<path d="M40.2003 9.2002L2.50031 22.2002C2.40031 22.2002 2.30031 22.4002 2.40031 22.5002L8.00031 38.9002C8.10031 39.0002 8.20031 39.0002 8.30031 39.0002L46.0003 26.0002C46.1003 26.0002 46.2003 25.8002 46.1003 25.7002L40.5003 9.3002C40.4003 9.2002 40.3003 9.2002 40.2003 9.2002ZM14.3003 28.3002L9.20031 30.0002C8.80031 30.1002 8.40031 29.9002 8.30031 29.5002C8.20031 29.1002 8.40031 28.7002 8.80031 28.6002L13.9003 26.9002C14.3003 26.8002 14.7003 27.0002 14.8003 27.4002C14.9003 27.8002 14.7003 28.2002 14.3003 28.3002ZM26.5003 30.5002C23.0003 31.7002 19.1003 29.8002 17.9003 26.3002C16.7003 22.8002 18.6003 18.9002 22.1003 17.7002C25.6003 16.5002 29.5003 18.4002 30.7003 21.9002C31.9003 25.4002 30.0003 29.3002 26.5003 30.5002ZM39.3003 19.7002L34.2003 21.4002C33.8003 21.5002 33.4003 21.3002 33.3003 20.9002C33.2003 20.5002 33.4003 20.1002 33.8003 20.0002L38.9003 18.3002C39.3003 18.2002 39.7003 18.4002 39.8003 18.8002C39.9003 19.2002 39.7003 19.6002 39.3003 19.7002Z" fill="#168749"/>
<path d="M25.9005 19.9003C25.5005 19.7003 25.0005 19.7003 24.6005 19.8003L21.3005 20.9003C20.9005 21.0003 20.5005 21.3003 20.3005 21.8003C20.1005 22.3003 20.1005 22.7003 20.2005 23.1003L20.4005 23.6003C20.6005 24.3003 21.2005 24.7003 22.0005 24.7003H22.3005L21.6005 22.6003C21.6005 22.5003 21.6005 22.4003 21.6005 22.4003L21.7005 22.3003L25.0005 21.2003C25.1005 21.2003 25.2005 21.2003 25.2005 21.2003L25.3005 21.3003L25.7005 22.4003L27.1005 21.9003L26.7005 20.8003C26.6005 20.4003 26.3005 20.1003 25.9005 19.9003Z" fill="#16A55A"/>
<path d="M26.4003 23.5002H26.1003L26.8003 25.6002C26.8003 25.7002 26.8003 25.8002 26.8003 25.8002L26.7003 25.9002L23.4003 27.0002C23.3003 27.0002 23.1003 27.0002 23.1003 26.9002L22.7003 25.8002L21.3003 26.3002L21.7003 27.4002C22.0003 28.3002 23.0003 28.7002 23.8003 28.4002L27.1003 27.3002C27.5003 27.2002 27.9003 26.9002 28.1003 26.4002C28.3003 26.0002 28.3003 25.5002 28.2003 25.1002L28.0003 24.7002C27.8003 24.0002 27.2003 23.6002 26.4003 23.5002Z" fill="#16A55A"/>
<path d="M24.8005 25.8001C24.8005 25.8001 24.7005 25.4001 24.9005 24.9001C24.9005 24.8001 25.0005 24.6001 25.0005 24.5001C25.3005 23.9001 25.9005 23.5001 25.9005 23.5001C25.9005 23.5001 25.4005 23.6001 24.9005 23.4001C24.8005 23.4001 24.7005 23.3001 24.6005 23.3001C24.0005 23.0001 23.6005 22.4001 23.6005 22.4001C23.6005 22.4001 23.7005 22.8001 23.5005 23.3001C23.5005 23.4001 23.4005 23.6001 23.4005 23.7001C23.1005 24.3001 22.5005 24.7001 22.5005 24.7001C22.5005 24.7001 23.0005 24.6001 23.5005 24.8001C23.6005 24.8001 23.7005 24.9001 23.8005 24.9001C24.5005 25.2001 24.8005 25.8001 24.8005 25.8001Z" fill="#16A55A"/>
<path d="M30.1999 40.7999C29.1999 40.9999 28.9999 41.0999 28.7999 42.1999C28.5999 41.1999 28.4999 40.9999 27.3999 40.7999C28.3999 40.5999 28.5999 40.4999 28.7999 39.3999C28.9999 40.4999 29.1999 40.5999 30.1999 40.7999Z" fill="white"/>
<path d="M21.4002 6.1C20.2002 6.3 20.0002 6.5 19.8002 7.7C19.6002 6.5 19.4002 6.3 18.2002 6.1C19.4002 5.9 19.6002 5.7 19.8002 4.5C20.0002 5.7 20.2002 5.9 21.4002 6.1Z" fill="white"/>
<path d="M2.30005 17.9999L42.7 10.5999C43.1 10.4999 43.5 10.7999 43.6 11.1999L46.9 29.2999C47 29.6999 46.7 30.0999 46.3 30.1999L5.90005 37.5999C5.40005 37.6999 5.00005 37.3999 4.90005 36.9999L1.70005 18.8999C1.60005 18.4999 1.90005 18.0999 2.30005 17.9999Z" fill="#20BA65"/>
<path d="M42.2998 11.8L2.9998 18.9C2.8998 18.9 2.7998 19 2.7998 19.1L5.9998 36.3C5.9998 36.4 6.0998 36.5 6.1998 36.5L45.3998 29.4C45.4998 29.4 45.5998 29.3001 45.5998 29.2001L42.4998 12C42.4998 11.9 42.3998 11.8 42.2998 11.8ZM13.7998 26.8L8.4998 27.8C8.0998 27.9 7.6998 27.6 7.6998 27.2C7.6998 26.8 7.8998 26.4 8.2998 26.4L13.5998 25.4C13.9998 25.3 14.3998 25.6 14.3998 26C14.4998 26.3 14.1998 26.7 13.7998 26.8ZM25.4998 30.8C21.7998 31.5 18.2998 29 17.5998 25.3C16.8998 21.6 19.3998 18.1 23.0998 17.4C26.7998 16.7 30.2998 19.2 30.9998 22.9C31.6998 26.6 29.1998 30.1 25.4998 30.8ZM39.7998 22L34.4998 23C34.0998 23.1 33.6998 22.8 33.6998 22.4C33.5998 22 33.8998 21.6 34.2998 21.6L39.5998 20.6C39.9998 20.5 40.3998 20.8 40.3998 21.2C40.4998 21.6 40.1998 22 39.7998 22Z" fill="#168749"/>
<path d="M26.4998 20.2C26.0998 19.9 25.6998 19.8 25.1998 19.9L21.7998 20.5C21.3998 20.6 20.9998 20.8 20.6998 21.2C20.3998 21.6 20.2998 22 20.3998 22.5L20.4998 23C20.5998 23.7 21.1998 24.2 21.8998 24.4L22.1998 24.5L21.7998 22.3C21.7998 22.2 21.7998 22.1 21.7998 22.1C21.7998 22.1 21.8998 22 21.9998 22L25.3998 21.4C25.4998 21.4 25.5998 21.4 25.5998 21.4C25.5998 21.4 25.6998 21.5 25.6998 21.6L25.8998 22.7L27.2998 22.4L27.0998 21.3C27.0998 20.8 26.8998 20.4 26.4998 20.2Z" fill="#16A55A"/>
<path d="M26.4996 23.9L26.1996 23.8L26.5996 26C26.5996 26.1 26.5996 26.2001 26.5996 26.2001C26.5996 26.2001 26.4996 26.3 26.3996 26.3L22.9996 26.9C22.8996 26.9 22.6996 26.8001 22.6996 26.7001L22.4996 25.6L21.0996 25.9L21.2996 27C21.4996 27.9 22.2996 28.5 23.1996 28.3L26.5996 27.7001C26.9996 27.6001 27.3996 27.4 27.6996 27C27.9996 26.6 27.9996 26.2001 27.9996 25.7001L27.8996 25.2001C27.7996 24.6001 27.2996 24 26.4996 23.9Z" fill="#16A55A"/>
<path d="M24.5996 25.8001C24.5996 25.8001 24.5996 25.4001 24.7996 24.9001C24.8996 24.8001 24.8996 24.7001 24.9996 24.6001C25.3996 24.0001 25.9996 23.8001 25.9996 23.8001C25.9996 23.8001 25.4996 23.8001 24.9996 23.5001C24.8996 23.5001 24.7996 23.4001 24.7996 23.4001C24.1996 23.0001 23.9996 22.4001 23.9996 22.4001C23.9996 22.4001 23.9996 22.8001 23.7996 23.3001C23.6996 23.4001 23.6996 23.5001 23.5996 23.6001C23.1996 24.2001 22.5996 24.4001 22.5996 24.4001C22.5996 24.4001 23.0996 24.4001 23.5996 24.7001C23.6996 24.7001 23.7996 24.8001 23.7996 24.8001C24.2996 25.2001 24.5996 25.8001 24.5996 25.8001Z" fill="#16A55A"/>
<path d="M3.7001 14.2L44.7001 14.9C45.1001 14.9 45.5001 15.3 45.5001 15.7L45.2001 34.0999C45.2001 34.4999 44.8001 34.9 44.4001 34.9L3.4001 34.2C3.0001 34.2 2.6001 33.8 2.6001 33.4L3.0001 14.9C3.0001 14.5 3.3001 14.2 3.7001 14.2Z" fill="#20BA65"/>
<path d="M44.2003 16L4.30029 15.3C4.20029 15.3 4.10029 15.4 4.10029 15.5L3.80029 32.8C3.80029 32.9 3.90029 33 4.00029 33L43.9003 33.7001C44.0003 33.7001 44.1003 33.6 44.1003 33.5L44.4003 16.2C44.4003 16.1 44.3003 16 44.2003 16ZM13.3003 25.1L8.00029 25C7.60029 25 7.30029 24.7 7.30029 24.3C7.30029 23.9 7.60029 23.6 8.00029 23.6L13.3003 23.7C13.7003 23.7 14.0003 24 14.0003 24.4C14.1003 24.7 13.7003 25.1 13.3003 25.1ZM24.0003 31.3C20.2003 31.2 17.3003 28.1 17.3003 24.4C17.3003 20.7 20.5003 17.7 24.2003 17.7C27.9003 17.7 30.9003 20.9 30.9003 24.6C30.9003 28.3 27.7003 31.4 24.0003 31.3ZM39.7003 25.5L34.4003 25.4C34.0003 25.4 33.7003 25.1 33.7003 24.7C33.7003 24.3 34.0003 24 34.4003 24L39.7003 24.1C40.1003 24.1 40.4003 24.4 40.4003 24.8C40.5003 25.2 40.1003 25.5 39.7003 25.5Z" fill="#168749"/>
<path d="M27.1002 21.1C26.8002 20.8 26.4002 20.6 25.9002 20.6L22.4002 20.5C22.0002 20.5 21.5002 20.7 21.2002 21C20.9002 21.3 20.7002 21.7 20.7002 22.2V22.7C20.7002 23.4 21.1002 24 21.8002 24.3L22.1002 24.4V22.2C22.1002 22.1 22.1002 22.1 22.2002 22C22.2002 22 22.3002 21.9 22.4002 21.9L25.9002 22C26.0002 22 26.0002 22 26.1002 22.1C26.1002 22.1 26.2002 22.2 26.2002 22.3V23.4H27.6002V22.3C27.5002 21.9 27.4002 21.4 27.1002 21.1Z" fill="#16A55A"/>
<path d="M26.3002 24.7001L26.0002 24.6001V26.8001C26.0002 26.9001 26.0002 26.9001 25.9002 27.0001C25.9002 27.0001 25.8002 27.1001 25.7002 27.1001L22.3002 27.0001C22.2002 27.0001 22.1002 26.9001 22.1002 26.8001V25.7001H20.7002V26.8001C20.7002 27.7001 21.4002 28.5001 22.3002 28.5001L25.8002 28.6001C26.2002 28.6001 26.7002 28.4001 27.0002 28.1001C27.3002 27.8001 27.5002 27.4001 27.5002 26.9001V26.4001C27.5002 25.6001 27.0002 25.0001 26.3002 24.7001Z" fill="#16A55A"/>
<path d="M24.0003 26.2999C24.0003 26.2999 24.1003 25.9 24.4003 25.5C24.5003 25.4 24.6003 25.3 24.7003 25.2C25.2003 24.7 25.8003 24.6 25.8003 24.6C25.8003 24.6 25.3003 24.5 24.9003 24.1C24.8003 24.1 24.8003 24 24.7003 23.9C24.2003 23.4 24.1003 22.7 24.1003 22.7C24.1003 22.7 24.0003 23.1 23.7003 23.5C23.6003 23.6 23.5003 23.6999 23.4003 23.7999C22.9003 24.2999 22.3003 24.4 22.3003 24.4C22.3003 24.4 22.8003 24.5 23.2003 24.9C23.3003 24.9999 23.3003 25 23.4003 25.1C23.9003 25.6 24.0003 26.2999 24.0003 26.2999Z" fill="#16A55A"/>
<path d="M5.20024 11.0001L45.7002 17.5001C46.1002 17.6001 46.4002 18.0001 46.3002 18.4001L43.4002 36.6001C43.3002 37.0001 42.9002 37.3001 42.5002 37.2001L2.00024 30.7001C1.60024 30.6001 1.30024 30.2001 1.40024 29.8001L4.30024 11.6001C4.30024 11.2001 4.70024 10.9001 5.20024 11.0001Z" fill="#21E888"/>
<path d="M45.0001 18.5002L5.6001 12.2002C5.5001 12.2002 5.4001 12.3002 5.4001 12.4002L2.6001 29.5002C2.6001 29.6002 2.7001 29.7002 2.8001 29.7002L42.2001 36.0002C42.3001 36.0002 42.4001 35.9002 42.4001 35.8002L45.1001 18.7002C45.1001 18.6002 45.1001 18.5002 45.0001 18.5002ZM13.1001 23.1002L7.8001 22.3002C7.4001 22.2002 7.1001 21.9002 7.2001 21.5002C7.3001 21.1002 7.6001 20.8002 8.0001 20.9002L13.3001 21.7002C13.7001 21.8002 14.0001 22.1002 13.9001 22.5002C13.9001 22.9002 13.5001 23.2002 13.1001 23.1002ZM22.8001 30.8002C19.1001 30.2002 16.6001 26.7002 17.2001 23.0002C17.8001 19.3002 21.3001 16.8002 25.0001 17.4002C28.7001 18.0002 31.2001 21.5002 30.6001 25.2002C30.0001 28.9002 26.5001 31.4002 22.8001 30.8002ZM39.2001 27.3002L33.9001 26.5002C33.5001 26.4002 33.2001 26.1002 33.3001 25.7002C33.4001 25.3002 33.7001 25.0002 34.1001 25.1002L39.4001 25.9002C39.8001 26.0002 40.1001 26.3002 40.0001 26.7002C40.0001 27.1002 39.6001 27.3002 39.2001 27.3002Z" fill="#16A55A"/>
<path d="M27.3 21.1003C27 20.7003 26.7 20.5003 26.2 20.4003L22.8 19.9003C22.4 19.8003 21.9 19.9003 21.6 20.2003C21.2 20.5003 21 20.8003 20.9 21.3003L20.8 21.8003C20.7 22.5003 21 23.1003 21.7 23.6003L22 23.8003L22.4 21.6003C22.4 21.5003 22.5 21.5003 22.5 21.4003C22.5 21.4003 22.6 21.3003 22.7 21.4003L26.1 21.9003C26.2 21.9003 26.2 22.0003 26.3 22.0003C26.3 22.0003 26.4 22.1003 26.3 22.2003L26 23.3003L27.4 23.5003L27.6 22.4003C27.7 21.9003 27.6 21.5003 27.3 21.1003Z" fill="#16A55A"/>
<path d="M26.1002 24.6001L25.8002 24.4001L25.4002 26.6001C25.4002 26.7001 25.3002 26.7001 25.3002 26.8001C25.3002 26.8001 25.2002 26.9001 25.1002 26.8001L21.7002 26.3001C21.6002 26.3001 21.5002 26.2001 21.5002 26.0001L21.7002 24.9001L20.3002 24.7001L20.1002 25.8001C20.0002 26.7001 20.6002 27.6001 21.5002 27.7001L24.9002 28.2001C25.3002 28.3001 25.8002 28.2001 26.1002 27.9001C26.5002 27.6001 26.7002 27.2001 26.8002 26.8001L26.9002 26.3001C27.1002 25.7001 26.7002 25.0001 26.1002 24.6001Z" fill="#16A55A"/>
<path d="M23.6002 25.8003C23.6002 25.8003 23.7002 25.4003 24.1002 25.0003C24.2002 24.9003 24.3002 24.8003 24.4002 24.7003C25.0002 24.3003 25.6002 24.3003 25.6002 24.3003C25.6002 24.3003 25.1002 24.1003 24.8002 23.7003C24.7002 23.6003 24.7002 23.6003 24.6002 23.5003C24.2002 22.9003 24.2002 22.3003 24.2002 22.3003C24.2002 22.3003 24.1002 22.7003 23.7002 23.1003C23.6002 23.2003 23.5002 23.3003 23.4002 23.4003C22.8002 23.8003 22.2002 23.8003 22.2002 23.8003C22.2002 23.8003 22.7002 24.0003 23.0002 24.4003C23.1002 24.5003 23.1002 24.5003 23.2002 24.6003C23.6002 25.2003 23.6002 25.8003 23.6002 25.8003Z" fill="#16A55A"/>
<path d="M7.4999 8.20004L46.4999 21C46.8999 21.1 47.0999 21.6 46.9999 22L41.2999 39.5C41.1999 39.9 40.6999 40.1 40.2999 40L1.2999 27.2C0.899897 27.1 0.699897 26.6 0.799897 26.2L6.4999 8.70004C6.5999 8.30004 7.0999 8.10004 7.4999 8.20004Z" fill="#21E888"/>
<path d="M45.6 21.8001L7.7 9.40015C7.6 9.40015 7.5 9.40015 7.4 9.50015L2 26.1001C2 26.2001 2 26.3001 2.1 26.4001L40 38.8001C40.1 38.8001 40.2 38.8001 40.3 38.7001L45.7 22.2001C45.7 22.0001 45.7 21.9001 45.6 21.8001ZM13.4 21.4001L8.3 19.7001C7.9 19.6001 7.7 19.2001 7.8 18.8001C7.9 18.4001 8.3 18.2001 8.7 18.3001L13.8 20.0001C14.2 20.1001 14.4 20.5001 14.3 20.9001C14.2 21.4001 13.8 21.6001 13.4 21.4001ZM21.8 30.6001C18.2 29.4001 16.3 25.6001 17.5 22.0001C18.7 18.4001 22.5 16.5001 26.1 17.7001C29.7 18.9001 31.6 22.7001 30.4 26.3001C29.2 29.9001 25.3 31.7001 21.8 30.6001ZM38.5 29.7001L33.4 28.0001C33 27.9001 32.8 27.5001 32.9 27.1001C33 26.7001 33.4 26.5001 33.8 26.6001L38.9 28.3001C39.3 28.4001 39.5 28.8001 39.4 29.2001C39.3 29.6001 38.9 29.8001 38.5 29.7001Z" fill="#16A55A"/>
<path d="M27.6999 21.7001C27.4999 21.3001 27.1999 21.0001 26.6999 20.9001L23.3999 19.8001C22.9999 19.7001 22.4999 19.7001 22.0999 19.9001C21.6999 20.1001 21.3999 20.4001 21.2999 20.9001L21.0999 21.4001C20.8999 22.1001 21.0999 22.8001 21.6999 23.3001L21.8999 23.5001L22.5999 21.4001C22.5999 21.3001 22.6999 21.3001 22.6999 21.3001C22.6999 21.3001 22.7999 21.3001 22.8999 21.3001L26.1999 22.4001C26.2999 22.4001 26.2999 22.5001 26.2999 22.5001C26.2999 22.5001 26.2999 22.6001 26.2999 22.7001L25.9999 23.8001L27.3999 24.2001L27.6999 23.1001C27.9999 22.6001 27.8999 22.1001 27.6999 21.7001Z" fill="#16A55A"/>
<path d="M26.0001 24.9001L25.8001 24.7001L25.0001 26.9001C25.0001 27.0001 24.9001 27.0001 24.9001 27.0001C24.9001 27.0001 24.8001 27.0001 24.7001 27.0001L21.4001 25.9001C21.3001 25.9001 21.2001 25.7001 21.2001 25.6001L21.5001 24.5001L20.1001 24.1001L19.8001 25.2001C19.5001 26.1001 20.0001 27.0001 20.9001 27.3001L24.2001 28.4001C24.6001 28.5001 25.1001 28.5001 25.5001 28.3001C25.9001 28.1001 26.2001 27.7001 26.3001 27.3001L26.5001 26.8001C26.8001 26.2001 26.5001 25.5001 26.0001 24.9001Z" fill="#16A55A"/>
<path d="M23.2998 25.8002C23.2998 25.8002 23.4998 25.4002 23.8998 25.1002C23.9998 25.0002 24.0998 24.9002 24.1998 24.9002C24.7998 24.6002 25.4998 24.7002 25.4998 24.7002C25.4998 24.7002 25.0998 24.5002 24.7998 24.0002C24.7998 23.9002 24.6998 23.8002 24.6998 23.8002C24.3998 23.2002 24.4998 22.5002 24.4998 22.5002C24.4998 22.5002 24.2998 22.9002 23.8998 23.2002C23.7998 23.3002 23.6998 23.4002 23.5998 23.4002C22.9998 23.7002 22.2998 23.6002 22.2998 23.6002C22.2998 23.6002 22.6998 23.8002 22.9998 24.3002C22.9998 24.4002 23.0998 24.5002 23.0998 24.5002C23.3998 25.1002 23.2998 25.8002 23.2998 25.8002Z" fill="#16A55A"/>
<path d="M9.70003 6.20009L46.6 24.1001C47 24.3001 47.1 24.8001 47 25.1001L39 41.6001C38.8 42.0001 38.3 42.1001 38 42.0001L1.00003 24.1001C0.600033 23.9001 0.500033 23.4001 0.600033 23.1001L8.60003 6.60009C8.90003 6.10009 9.40003 6.00009 9.70003 6.20009Z" fill="#21E888"/>
<path d="M45.6999 24.8001L9.79992 7.40006C9.69992 7.30006 9.59992 7.40006 9.49992 7.50006L1.99992 23.1001C1.89992 23.2001 1.99992 23.3001 2.09992 23.4001L37.9999 40.8001C38.0999 40.9001 38.1999 40.8001 38.2999 40.7001L45.8999 25.1001C45.7999 25.0001 45.7999 24.8001 45.6999 24.8001ZM13.8999 20.1001L9.09992 17.8001C8.69992 17.6001 8.59992 17.2001 8.79992 16.8001C8.99992 16.4001 9.39992 16.3001 9.79992 16.5001L14.5999 18.8001C14.9999 19.0001 15.0999 19.4001 14.8999 19.8001C14.6999 20.1001 14.1999 20.2001 13.8999 20.1001ZM20.8999 30.2001C17.4999 28.6001 16.0999 24.5001 17.7999 21.1001C19.4999 17.7001 23.4999 16.3001 26.8999 18.0001C30.2999 19.7001 31.6999 23.7001 29.9999 27.1001C28.2999 30.5001 24.2999 31.8001 20.8999 30.2001ZM37.5999 31.6001L32.7999 29.3001C32.3999 29.1001 32.2999 28.7001 32.4999 28.3001C32.6999 27.9001 33.0999 27.8001 33.4999 28.0001L38.2999 30.3001C38.6999 30.5001 38.7999 30.9001 38.5999 31.3001C38.3999 31.7001 37.9999 31.8001 37.5999 31.6001Z" fill="#16A55A"/>
<path d="M27.9999 22.2C27.8999 21.8 27.5999 21.4 27.0999 21.2L23.9999 19.8C23.5999 19.6 23.0999 19.6 22.6999 19.7C22.2999 19.8 21.8999 20.1 21.6999 20.6L21.5999 21C21.2999 21.6 21.3999 22.3 21.8999 22.9L22.0999 23.1L23.0999 21.1C23.0999 21 23.1999 21 23.1999 21C23.1999 21 23.2999 21 23.3999 21L26.4999 22.5C26.5999 22.5 26.5999 22.6 26.5999 22.6C26.5999 22.6 26.5999 22.7 26.5999 22.8L26.0999 23.8L27.3999 24.4L27.8999 23.4C28.0999 23.1 28.1999 22.7 27.9999 22.2Z" fill="#16A55A"/>
<path d="M25.7998 25.2L25.5998 25L24.5998 27C24.5998 27.1 24.4998 27.1 24.4998 27.1C24.4998 27.1 24.3998 27.1 24.2998 27.1L21.1998 25.6C21.0998 25.5 20.9998 25.3999 21.0998 25.2999L21.5998 24.2999L20.2998 23.7L19.7998 24.7C19.3998 25.5 19.6998 26.4999 20.5998 26.9L23.6998 28.4C24.0998 28.5999 24.5998 28.6 24.9998 28.5C25.3998 28.4 25.7998 28 25.9998 27.6L26.1998 27.1C26.4998 26.5 26.2998 25.8 25.7998 25.2Z" fill="#16A55A"/>
<path d="M23.0997 25.7C23.0997 25.7 23.2997 25.4 23.7997 25.1C23.8997 25 23.9997 25 24.1997 24.9C24.8997 24.7 25.4997 24.8 25.4997 24.8C25.4997 24.8 24.9997 24.6 24.7997 24C24.7997 23.9 24.6997 23.8 24.6997 23.8C24.4997 23.1 24.5997 22.5 24.5997 22.5C24.5997 22.5 24.3997 22.8 23.8997 23.1C23.7997 23.2 23.6997 23.2 23.4997 23.3C22.7997 23.5 22.1997 23.4 22.1997 23.4C22.1997 23.4 22.5997 23.7 22.7997 24.2C22.7997 24.3 22.8997 24.4 22.8997 24.4C23.2997 25 23.0997 25.7 23.0997 25.7Z" fill="#16A55A"/>
<path d="M17.0001 8.19995C14.4001 8.59995 14.0001 8.99995 13.6001 11.6H13.5001C13.1001 8.99995 12.7001 8.59995 10.1001 8.19995V8.09995C12.7001 7.69995 13.1001 7.29995 13.5001 4.69995H13.6001C14.1001 7.39995 14.5001 7.69995 17.0001 8.19995C17.1001 8.19995 17.1001 8.19995 17.0001 8.19995Z" fill="white"/>
</svg>
